<?xml version="1.0" encoding="utf-8"?>
<!-- Generator: Adobe Illustrator 14.0.0, SVG Export Plug-In  -->
<!DOCTYPE svg PUBLIC "-//W3C//DTD SVG 1.1//EN" "http://www.w3.org/Graphics/SVG/1.1/DTD/svg11.dtd" [
	<!ENTITY ns_flows "http://ns.adobe.com/Flows/1.0/">
]>
<svg version="1.1"
	 xmlns="http://www.w3.org/2000/svg" xmlns:xlink="http://www.w3.org/1999/xlink" xmlns:a="http://ns.adobe.com/AdobeSVGViewerExtensions/3.0/"
	 x="0px" y="0px" width="54px" height="54px" enable-background="new 0 0 54 54" xml:space="preserve">
<defs>
</defs>
<path fill-rule="evenodd" clip-rule="evenodd" fill="#84B87B" d="M54,27c0,14.912-12.088,27-27,27C12.088,54,0,41.912,0,27
	S12.088,0,27,0C41.912,0,54,12.088,54,27"/>
<path fill-rule="evenodd" clip-rule="evenodd" fill="#FFFFFF" d="M40.422,25.889c-0.887-1.704-2.396-2.876-4.106-3.388
	c0.563-1.694,0.47-3.604-0.418-5.311c-0.843-1.62-2.267-2.814-4.007-3.364c-1.742-0.55-3.594-0.389-5.213,0.454l-0.931,0.484
	l-2.277-4.377l-3.345,1.739l2.277,4.377l-2.855,1.485l-2.277-4.377l-0.801,0.417l-3.246,1.688l2.194,4.22l-3.956,2.058l1.95,3.749
	l3.956-2.057l7.098,13.646l-3.956,2.057l1.95,3.75l3.956-2.058l1.852,3.562l0.802-0.417l3.246-1.688l-1.935-3.72l2.862-1.488
	l1.935,3.72l3.332-1.733l-1.936-3.719l0.938-0.488c0.598-0.311,1.138-0.701,1.608-1.156c0.806-0.78,1.409-1.752,1.756-2.851
	C41.426,29.359,41.264,27.509,40.422,25.889 M24.163,26.639l-2.738-5.265l7.038-3.66c0.703-0.366,1.506-0.437,2.262-0.197
	c0.756,0.238,1.374,0.757,1.74,1.46c0.754,1.451,0.188,3.246-1.264,4.001l0,0L24.163,26.639z M37.186,29.937
	c-0.238,0.756-0.758,1.373-1.461,1.738l-7.038,3.661l-2.738-5.265l7.038-3.66c1.452-0.755,3.247-0.188,4.002,1.263
	C37.354,28.377,37.424,29.181,37.186,29.937"/>
</svg>
