<?xml version="1.0" encoding="utf-8"?>
<!-- Generator: Adobe Illustrator 14.0.0, SVG Export Plug-In . SVG Version: 6.00 Build 43363)  -->
<!DOCTYPE svg PUBLIC "-//W3C//DTD SVG 1.1//EN" "http://www.w3.org/Graphics/SVG/1.1/DTD/svg11.dtd">
<svg version="1.1" id="图层_1" xmlns="http://www.w3.org/2000/svg" xmlns:xlink="http://www.w3.org/1999/xlink" x="0px" y="0px"
	 width="54px" height="54px" enable-background="new 0 0 54 54" xml:space="preserve">
<path fill-rule="evenodd" clip-rule="evenodd" fill="#E08F4C" d="M54,27c0,14.912-12.087,27-27,27C12.088,54,0,41.912,0,27
	C0,12.089,12.088,0,27,0C41.913,0,54,12.089,54,27"/>
<path fill-rule="evenodd" clip-rule="evenodd" fill="#FFFFFF" d="M39.524,21.396c-0.87-1.606-2.312-2.778-4.063-3.299l-1.005-0.3
	l1.408-4.729l-3.614-1.076l-1.407,4.729l-3.085-0.918l1.409-4.729l-0.866-0.258l-3.507-1.044l-1.357,4.558l-4.273-1.272l-1.206,4.05
	l4.273,1.272l-4.39,14.742l-4.274-1.273l-1.206,4.051l4.273,1.273l-1.146,3.846l0.866,0.258l3.507,1.045l1.196-4.018l3.093,0.92
	l-1.197,4.02l3.6,1.072l1.196-4.02l1.014,0.303c0.645,0.191,1.305,0.287,1.961,0.287c1.12,0,2.229-0.279,3.243-0.826
	c1.606-0.869,2.777-2.313,3.299-4.063c0.549-1.842,0.277-3.732-0.594-5.289c1.582-0.826,2.845-2.266,3.392-4.106
	C40.585,24.85,40.394,23.002,39.524,21.396 M36.121,23.237c0.377,0.697,0.459,1.499,0.233,2.259
	c-0.467,1.567-2.123,2.463-3.689,1.996h-0.001l-7.603-2.264l1.693-5.688l7.603,2.265C35.118,22.031,35.743,22.539,36.121,23.237
	 M33.556,34.893c-0.226,0.76-0.734,1.385-1.432,1.762c-0.696,0.377-1.499,0.461-2.258,0.234l-7.604-2.266l1.694-5.686l7.603,2.264
	l0,0C33.127,31.668,34.023,33.324,33.556,34.893"/>
</svg>
