<?xml version="1.0" encoding="utf-8"?>
<!-- Generator: Adobe Illustrator 21.0.0, SVG Export Plug-In . SVG Version: 6.00 Build 0)  -->
<svg version="1.1" id="图层_1" xmlns="http://www.w3.org/2000/svg" xmlns:xlink="http://www.w3.org/1999/xlink" x="0px" y="0px"
	 viewBox="0 0 42.5 42.5" style="enable-background:new 0 0 42.5 42.5;" xml:space="preserve">
<style type="text/css">
	.st0{fill:#2B2B2B;}
	.st1{fill:#56B689;}
	.st2{fill:#FFFFFF;}
	.st3{fill:#D7D7D7;}
	.st4{fill:#4EB785;}
</style>
<g>
	<g>
		<circle class="st0" cx="21.2" cy="21.2" r="18.5"/>
		<path class="st1" d="M21.2,2.7c10.2,0,18.5,8.3,18.5,18.5s-8.3,18.5-18.5,18.5S2.7,31.5,2.7,21.2S11,2.7,21.2,2.7 M21.2,1.7
			c-2.6,0-5.2,0.5-7.6,1.5c-2.3,1-4.4,2.4-6.2,4.2c-1.8,1.8-3.2,3.9-4.2,6.2c-1,2.4-1.5,5-1.5,7.6s0.5,5.2,1.5,7.6
			c1,2.3,2.4,4.4,4.2,6.2c1.8,1.8,3.9,3.2,6.2,4.2c2.4,1,5,1.5,7.6,1.5c2.6,0,5.2-0.5,7.6-1.5c2.3-1,4.4-2.4,6.2-4.2
			c1.8-1.8,3.2-3.9,4.2-6.2c1-2.4,1.5-5,1.5-7.6s-0.5-5.2-1.5-7.6c-1-2.3-2.4-4.4-4.2-6.2c-1.8-1.8-3.9-3.2-6.2-4.2
			C26.4,2.2,23.9,1.7,21.2,1.7L21.2,1.7z"/>
	</g>
	<g>
		<polygon class="st2" points="10.1,11.9 10.1,15.7 10.1,19.4 10.1,23.1 13.9,23.1 13.9,19.4 13.9,15.7 13.9,11.9 		"/>
		<polygon class="st2" points="28.6,19.4 28.6,23.1 28.6,26.8 28.6,30.6 32.4,30.6 32.4,26.8 32.4,23.1 32.4,19.4 		"/>
		<polygon class="st2" points="21.2,11.9 21.2,15.7 21.2,19.2 24.9,23 24.9,19.4 24.9,15.7 		"/>
		<polygon class="st2" points="17.6,19.5 17.6,23.1 17.6,26.8 21.3,30.6 21.3,26.8 21.3,23.3 		"/>
		<polygon class="st3" points="21.2,11.9 24.9,11.9 32.4,19.4 28.6,19.4 		"/>
		<polygon class="st3" points="10.1,23.1 13.9,23.1 21.3,30.6 17.6,30.6 		"/>
		<polygon class="st4" points="24.9,15.7 24.9,19.4 24.9,22.9 13.9,11.9 13.9,15.7 13.9,15.9 13.9,19.4 13.9,23.1 17.6,26.8 
			17.6,23.1 17.6,19.6 28.6,30.6 28.6,26.8 28.6,26.6 28.6,23.1 28.6,19.4 		"/>
	</g>
</g>
</svg>
