<?xml version="1.0" encoding="utf-8"?>
<!-- Generator: Adobe Illustrator 14.0.0, SVG Export Plug-In  -->
<!DOCTYPE svg PUBLIC "-//W3C//DTD SVG 1.1//EN" "http://www.w3.org/Graphics/SVG/1.1/DTD/svg11.dtd" [
	<!ENTITY ns_flows "http://ns.adobe.com/Flows/1.0/">
]>
<svg version="1.1"
	 xmlns="http://www.w3.org/2000/svg" xmlns:xlink="http://www.w3.org/1999/xlink" xmlns:a="http://ns.adobe.com/AdobeSVGViewerExtensions/3.0/"
	 x="0px" y="0px" width="54px" height="54px" enable-background="new 0 0 54 54" xml:space="preserve">
<defs>
</defs>
<path fill-rule="evenodd" clip-rule="evenodd" fill="#FFFFFF" stroke="#E6E7E8" stroke-linecap="square" stroke-linejoin="bevel" d="
	M53.5,27c0,14.635-11.864,26.5-26.5,26.5S0.5,41.635,0.5,27C0.5,12.364,12.364,0.5,27,0.5S53.5,12.364,53.5,27"/>
<path fill-rule="evenodd" clip-rule="evenodd" fill="#3C69A8" d="M26.429,37.272l2.079,1.812h-7.711
	c-5.334,0-9.658-4.324-9.658-9.658c0-1.629,0.403-3.164,1.116-4.51c0.651-1.232,1.563-2.307,2.66-3.151
	c0.063-0.049,0.127-0.097,0.192-0.145c0.649-0.474,1.359-0.868,2.116-1.17l-0.783-0.683l-0.06-0.052l-5.287-4.609h6.976l5.288,4.609
	l0.613,0.534c-0.007,0.015-0.015,0.029-0.022,0.043c0.04,0.014,0.08,0.028,0.12,0.043l4.494,3.916h-7.764
	c-0.763,0-1.488,0.166-2.141,0.463c-1.373,0.625-2.424,1.832-2.839,3.307c-0.125,0.446-0.192,0.917-0.192,1.404
	c0,0.215,0.013,0.428,0.039,0.636c0.313,2.558,2.493,4.537,5.134,4.537h2.566L26.429,37.272z"/>
<path fill-rule="evenodd" clip-rule="evenodd" fill="#54B393" d="M45.574,39.084H38.6l-5.146-4.485l-0.231-0.201l-3.047-2.656
	l-1.926-1.68h4.221c0.784,0,1.528-0.174,2.194-0.487c1.386-0.649,2.435-1.896,2.819-3.406c0.104-0.409,0.159-0.838,0.159-1.279
	c0-0.216-0.013-0.428-0.038-0.637c-0.314-2.557-2.493-4.536-5.135-4.536h-2.389l-3.208-2.796l-2.08-1.813h7.715
	c5.334,0,9.658,4.324,9.658,9.658c0,1.63-0.404,3.165-1.117,4.512c-0.66,1.246-1.584,2.331-2.697,3.179
	c-0.068,0.052-0.138,0.104-0.207,0.153l0.207,0.181L45.574,39.084z"/>
</svg>
