<?xml version="1.0" encoding="UTF-8"?>
<svg width="54px" height="54px" viewBox="0 0 54 54" version="1.1" xmlns="http://www.w3.org/2000/svg" xmlns:xlink="http://www.w3.org/1999/xlink">
    <title>编组 12</title>
    <defs>
        <polygon id="path-1" points="0 0 17.64 0 17.64 28.8 0 28.8"></polygon>
        <polygon id="path-3" points="0 0 17.64 0 17.64 28.8 0 28.8"></polygon>
    </defs>
    <g id="页面-1" stroke="none" stroke-width="1" fill="none" fill-rule="evenodd">
        <g id="编组-12">
            <circle id="椭圆形" stroke="#E0E1E1" fill="#FFFFFF" cx="27" cy="27" r="26.5"></circle>
            <g id="编组" transform="translate(11.520000, 10.800000)">
                <g>
                    <mask id="mask-2" fill="white">
                        <use xlink:href="#path-1"></use>
                    </mask>
                    <g id="Clip-2"></g>
                    <path d="M0,24.2612777 L0,9.19412667 C0,8.88952151 0.159733268,8.61865295 0.383412473,8.48314896 L13.2299671,0.120099469 C13.4537779,-0.0154045169 13.7412715,-0.0492805134 13.9969236,0.0862234725 L17.1606686,1.64368286 C17.4482938,1.77918685 17.64,2.08393141 17.64,2.42241256 L17.64,13.9682722 C17.64,14.5777614 17.0329083,15.0178705 16.489631,14.7470019 L9.4911034,11.2934626 C8.94782609,11.022594 8.34060283,11.4288272 8.34060283,12.0721923 L8.34060283,27.9518096 C8.34060283,28.5951747 7.70153819,29.0015473 7.15826087,28.6968027 L0.415385442,25.0061314 C0.159733268,24.8707668 0,24.5660222 0,24.2612777" id="Fill-1" fill="#397AFA" mask="url(#mask-2)"></path>
                </g>
                <g transform="translate(13.320000, 3.600000)">
                    <mask id="mask-4" fill="white">
                        <use xlink:href="#path-3"></use>
                    </mask>
                    <g id="Clip-4"></g>
                    <path d="M17.6400132,4.567178 L17.6400132,19.616657 C17.6400132,19.9209049 17.4802798,20.1914557 17.2566004,20.3268008 L4.41003618,28.6800414 C4.18622524,28.8153864 3.89873145,28.8492227 3.64307909,28.7138777 L0.479331737,27.158245 C0.191706379,27.0228999 0,26.7185128 0,26.3804286 L0,14.8481109 C0,14.2393367 0.607092131,13.7997437 1.15036985,14.0702946 L8.14890267,17.5197833 C8.6921804,17.7903342 9.2994041,17.3845775 9.2994041,16.741967 L9.2994041,0.847138394 C9.2994041,0.204527869 9.93846923,-0.201228809 10.4817469,0.103019077 L17.2246274,3.78936166 C17.4802798,3.95840374 17.6400132,4.2289546 17.6400132,4.567178" id="Fill-3" fill="#71DDBC" mask="url(#mask-4)"></path>
                </g>
            </g>
        </g>
    </g>
</svg>