<?xml version="1.0" encoding="utf-8"?>
<!-- Generator: Adobe Illustrator 21.0.0, SVG Export Plug-In . SVG Version: 6.00 Build 0)  -->
<svg version="1.1" id="图层_1" xmlns="http://www.w3.org/2000/svg" xmlns:xlink="http://www.w3.org/1999/xlink" x="0px" y="0px"
	 viewBox="0 0 141.7 141.7" style="enable-background:new 0 0 141.7 141.7;" xml:space="preserve">
<style type="text/css">
	.st0{fill:#FFFFFF;}
</style>
<g>
	<g>
		<circle class="st0" cx="70.8" cy="70.8" r="61.4"/>
		<path d="M70.8,9.5c33.9,0,61.4,27.5,61.4,61.4s-27.5,61.4-61.4,61.4S9.5,104.7,9.5,70.8S37,9.5,70.8,9.5 M70.8,6.1
			c-8.7,0-17.2,1.7-25.2,5.1c-7.7,3.3-14.6,7.9-20.6,13.9S14.5,37.9,11.2,45.6c-3.4,8-5.1,16.5-5.1,25.2s1.7,17.2,5.1,25.2
			c3.3,7.7,7.9,14.6,13.9,20.6c5.9,5.9,12.9,10.6,20.6,13.9c8,3.4,16.5,5.1,25.2,5.1s17.2-1.7,25.2-5.1c7.7-3.3,14.6-7.9,20.6-13.9
			c5.9-5.9,10.6-12.9,13.9-20.6c3.4-8,5.1-16.5,5.1-25.2s-1.7-17.2-5.1-25.2c-3.3-7.7-7.9-14.6-13.9-20.6
			c-5.9-5.9-12.9-10.6-20.6-13.9C88.1,7.8,79.6,6.1,70.8,6.1L70.8,6.1z"/>
	</g>
	<g>
		<path id="Fill-1" d="M96.8,57.9l-4.6-8.2l9,0c0.2,0,0.5,0.2,0.7,0.4c0.1,0.2,0.9,1.4,1.7,2.9c1,1.7,2.3,3.8,3,5H96.8z M80.2,107.8
			c-0.2,0.4-0.5,0.4-0.6,0.4h-3.7c-1.9,0-4.2,0-5.5,0l14.3-25.6c0.2-0.4,0.2-0.9,0-1.4s-0.7-0.7-1.2-0.7h0l-24.3,0l-4.8-8.4h35.4
			c0,0,0,0,0,0s0,0,0,0c0,0,0,0,0.1,0c0.1,0,0.2,0,0.2,0c0.1,0,0.1,0,0.2-0.1c0,0,0.1,0,0.1,0c0.3-0.1,0.5-0.3,0.6-0.6l5.8-10.8h9.6
			L80.2,107.8z M68,106.8c-0.3-0.5-0.7-1.2-1.2-1.9c-1.5-2.4-3.4-5.6-3.6-5.9c-0.1-0.1-0.1-0.4,0-0.7c0.3-0.6,6.8-12.3,8.4-15.1
			l9.4,0L68,106.8z M51.9,90.8l-4.7-8.3l4.7-8.9l4.7,8.2C55.2,84.6,52.9,88.9,51.9,90.8z M45.7,92.1c-2.4,0-4.8,0-5.1,0h0
			c-0.2,0-0.5-0.2-0.6-0.4l-1.5-2.5c-1.1-1.8-2.5-4.1-3.2-5.3h9.8l4.6,8.2C48.5,92.1,47.1,92.1,45.7,92.1z M61.5,33.9
			c0.2-0.4,0.5-0.4,0.6-0.4l9.2,0L57,59.2c0,0,0,0,0,0.1c0,0,0,0.1-0.1,0.1c0,0,0,0.1,0,0.1c0,0,0,0.1,0,0.1c0,0.1,0,0.1,0,0.2
			c0,0,0,0,0,0.1c0,0,0,0,0,0.1c0,0.1,0,0.1,0,0.1c0,0,0,0.1,0,0.1c0,0,0,0.1,0,0.1c0,0,0,0.1,0,0.1c0,0,0,0.1,0.1,0.1
			c0,0,0,0.1,0.1,0.1c0,0,0.1,0.1,0.1,0.1c0,0,0.1,0.1,0.1,0.1c0,0,0.1,0.1,0.1,0.1c0,0,0.1,0.1,0.1,0.1c0,0,0,0,0,0c0,0,0,0,0.1,0
			c0.1,0,0.1,0.1,0.2,0.1c0,0,0.1,0,0.1,0c0.1,0,0.2,0,0.3,0c0,0,0,0,0,0h0h0l0.6,0c0,0,0,0,0,0h0l23.7,0c0.6,1.1,1.8,3.1,2.8,4.9
			c0.8,1.3,1.4,2.5,1.9,3.3H51.9c0,0,0,0,0,0c-0.5,0-0.9,0.3-1.2,0.7l-5.8,11h-9.6C39.4,73.5,61.2,34.4,61.5,33.9z M73.7,34.9
			l0.9,1.4c1.5,2.5,3.6,6,3.9,6.4c0.1,0.1,0.1,0.4,0,0.7L70,58.5l-9.4,0L73.7,34.9z M89.8,50.9l4.7,8.3l-4.8,8.8
			c-0.6-1-1.3-2.2-1.9-3.4c-1.3-2.3-2.3-4-2.8-4.9C85.9,57.9,88.6,53,89.8,50.9z"/>
	</g>
</g>
</svg>
