<?xml version="1.0" encoding="utf-8"?>
<!-- Generator: Adobe Illustrator 24.1.0, SVG Export Plug-In . SVG Version: 6.00 Build 0)  -->
<svg version="1.1" id="图层_1" xmlns="http://www.w3.org/2000/svg" xmlns:xlink="http://www.w3.org/1999/xlink" x="0px" y="0px"
	 viewBox="0 0 141.7 141.7" style="enable-background:new 0 0 141.7 141.7;" xml:space="preserve">
<style type="text/css">
	.st0{fill:#FFFFFF;}
	.st1{fill:url(#SVGID_1_);}
	.st2{fill:url(#SVGID_2_);}
	.st3{fill:url(#SVGID_3_);}
	.st4{fill:url(#SVGID_4_);}
</style>
<circle class="st0" cx="70.8" cy="70.8" r="70.8"/>
<g>
	<linearGradient id="SVGID_1_" gradientUnits="userSpaceOnUse" x1="15.5943" y1="96.5655" x2="122.5304" y2="41.3151">
		<stop  offset="0" style="stop-color:#1843F3"/>
		<stop  offset="1" style="stop-color:#011A7E"/>
	</linearGradient>
	<polygon class="st1" points="97.7,65.3 80.3,65.3 72.6,39.7 63.8,65.3 36.8,65.3 59,81.4 53,104.6 	"/>
	<linearGradient id="SVGID_2_" gradientUnits="userSpaceOnUse" x1="17.9113" y1="101.05" x2="124.8474" y2="45.7997">
		<stop  offset="0" style="stop-color:#1843F3"/>
		<stop  offset="1" style="stop-color:#011A7E"/>
	</linearGradient>
	<path class="st2" d="M27.4,104.3c-5.4-4.7,0.2-17.5,13.3-32l-3.2-2.4c-13.1,14-19.2,27.3-14.1,34.5c4.6,6.5,13.5,6.9,26.5,1.1
		C49.9,105.5,33.2,109.4,27.4,104.3z"/>
	<linearGradient id="SVGID_3_" gradientUnits="userSpaceOnUse" x1="7.4806" y1="80.8617" x2="114.4168" y2="25.6113">
		<stop  offset="0" style="stop-color:#1843F3"/>
		<stop  offset="1" style="stop-color:#011A7E"/>
	</linearGradient>
	<path class="st3" d="M59.1,55.1c2.7-2.2,5.5-4.3,8.3-6v-3.5c-3.2,2-6.5,4.1-9.7,6.5c-4.8,3.5-9.2,7.2-13.2,10.9l5.2,0.3
		C52.5,60.5,55.7,57.8,59.1,55.1z"/>
	<linearGradient id="SVGID_4_" gradientUnits="userSpaceOnUse" x1="20.5039" y1="106.068" x2="127.44" y2="50.8176">
		<stop  offset="0" style="stop-color:#1843F3"/>
		<stop  offset="1" style="stop-color:#011A7E"/>
	</linearGradient>
	<path class="st4" d="M119.5,38.8c-0.2-0.6-0.6-1.1-0.9-1.6c-4.9-8.3-23.1-6.1-42.3,3.5v3c17.6-9.4,32.1-10.3,37.4-8.1
		c0.4,0.2,1.8,0.9,2.5,1.9c0.5,0.7,1.1,1.6,1.3,2c2.5,6.3-1.7,15.1-12.2,25.3c-5.5,5.3-11.5,9.7-21.2,16.1l4.7,19.1
		c0.1-0.1-16.1-11.1-16.1-11.1l-19.2,15.5l19.1-12.7L93,105.1c0,0-6.6-23.6-6.5-23.7C117.1,60.5,123.2,47.4,119.5,38.8z"/>
</g>
</svg>
